M48
; DRILL file {KiCad 5.1.2-f72e74a~84~ubuntu18.04.1} date Tue 30 Jul 2019 05:21:08 PM EDT
; FORMAT={-:-/ absolute / inch / decimal}
; #@! TF.CreationDate,2019-07-30T17:21:08-04:00
; #@! TF.GenerationSoftware,Kicad,Pcbnew,5.1.2-f72e74a~84~ubuntu18.04.1
; #@! TF.FileFunction,Plated,1,2,PTH
FMAT,2
INCH
T1C0.0157
T2C0.0315
T3C0.0394
T4C0.0433
T5C0.0512
T6C0.0709
T7C0.0866
T8C0.0906
%
G90
G05
T1
X1.9291Y-1.2057
X2.0276Y-1.7224
X2.126Y-1.7323
X2.1339Y-1.3622
X2.2047Y-1.622
X2.2339Y-1.2855
X2.2343Y-1.7323
X2.2539Y-1.5551
X2.2638Y-1.2598
X2.2638Y-1.4961
X2.372Y-2.4311
X2.372Y-2.9035
X2.4213Y-3.1004
X2.5689Y-1.6043
X2.5787Y-1.8209
X2.6373Y-1.2603
X2.6457Y-1.5118
X2.6575Y-1.2992
X2.6811Y-2.5236
X2.7559Y-1.811
X2.7559Y-2.4409
X2.815Y-1.4469
X2.8661Y-2.4409
X2.874Y-1.5118
X2.9291Y-2.2992
X2.9331Y-1.5157
X2.9528Y-1.3484
X2.9724Y-1.437
X3.0551Y-2.126
X3.0709Y-1.7087
X3.0709Y-2.0177
X3.126Y-1.7087
X3.1417Y-1.4803
X3.1496Y-2.1417
X3.1811Y-1.7087
X3.2205Y-1.3622
X3.2283Y-1.7087
X3.2362Y-2.1024
X3.2756Y-1.3543
X3.2756Y-1.7087
X3.2776Y-3.2677
X3.279Y-1.4611
X3.2835Y-2.1024
X3.3228Y-1.7087
X3.3258Y-2.1053
X3.3268Y-2.7657
X3.3661Y-1.8799
X3.3957Y-3.4252
X3.4055Y-1.6732
X3.4744Y-2.1575
X3.4882Y-2.2283
X3.5433Y-1.4961
X3.5308Y-3.4252
X3.5499Y-3.3793
X3.5499Y-3.4711
X3.5958Y-3.3602
X3.5958Y-3.4902
X3.6417Y-3.3793
X3.6417Y-3.4711
X3.6608Y-3.4252
X3.5374Y-2.3622
X3.5564Y-2.3163
X3.5564Y-2.4081
X3.6024Y-2.2972
X3.6024Y-2.4272
X3.6483Y-2.3163
X3.6483Y-2.4081
X3.6673Y-2.3622
X1.2539Y-2.0866
X1.273Y-2.0407
X1.273Y-2.1325
X1.3189Y-2.0217
X1.3189Y-2.1516
X1.3648Y-2.0407
X1.3648Y-2.1325
X1.3839Y-2.0866
X1.2539Y-3.4252
X1.273Y-3.3793
X1.273Y-3.4711
X1.3189Y-3.3602
X1.3189Y-3.4902
X1.3648Y-3.3793
X1.3648Y-3.4711
X1.3839Y-3.4252
T2
X3.1693Y-1.811
X3.1693Y-2.3425
X1.752Y-2.4803
X1.752Y-3.0118
X1.752Y-1.811
X1.752Y-2.3425
X2.4606Y-3.1496
X2.4606Y-3.6811
X3.1693Y-2.4803
X3.1693Y-3.0118
X3.1693Y-3.1496
X3.1693Y-3.6811
X2.4606Y-2.4803
X2.4606Y-3.0118
X1.752Y-3.1496
X1.752Y-3.6811
X2.4606Y-1.811
X2.4606Y-2.3425
T3
X3.5614Y-1.7323
X3.5614Y-1.8323
X3.5614Y-1.9323
X3.5614Y-2.0323
X3.6614Y-1.7323
X3.6614Y-1.8323
X3.6614Y-1.9323
X3.6614Y-2.0323
T4
X1.4016Y-1.5465
X1.4016Y-1.6449
X1.4843Y-1.5465
X1.4843Y-1.5465
X1.5866Y-1.5465
X1.6693Y-1.5465
X1.6693Y-1.6449
T5
X1.5059Y-2.6476
X1.5059Y-2.8445
X1.9823Y-2.6476
X1.9823Y-2.8445
X1.5059Y-1.9783
X1.5059Y-2.1752
X1.9823Y-1.9783
X1.9823Y-2.1752
X2.2146Y-3.3169
X2.2146Y-3.5138
X2.6909Y-3.3169
X2.6909Y-3.5138
X2.9232Y-2.6476
X2.9232Y-2.8445
X3.3996Y-2.6476
X3.3996Y-2.8445
X2.9232Y-3.3169
X2.9232Y-3.5138
X3.3996Y-3.3169
X3.3996Y-3.5138
X2.2146Y-2.6476
X2.2146Y-2.8445
X2.6909Y-2.6476
X2.6909Y-2.8445
X1.5059Y-3.3169
X1.5059Y-3.5138
X1.9823Y-3.3169
X1.9823Y-3.5138
X2.2146Y-1.9783
X2.2146Y-2.1752
X2.6909Y-1.9783
X2.6909Y-2.1752
X2.9232Y-1.9783
X2.9232Y-2.1752
X3.3996Y-1.9783
X3.3996Y-2.1752
T6
X1.752Y-2.5748
X1.752Y-2.9173
X1.752Y-1.9055
X1.752Y-2.248
X2.4606Y-3.2441
X2.4606Y-3.5866
X3.1693Y-2.5748
X3.1693Y-2.9173
X3.1693Y-3.2441
X3.1693Y-3.5866
X2.4606Y-2.5748
X2.4606Y-2.9173
X1.752Y-3.2441
X1.752Y-3.5866
X2.4606Y-1.9055
X2.4606Y-2.248
X3.1693Y-1.9055
X3.1693Y-2.248
T7
X1.3189Y-2.0866
X1.3189Y-3.4252
X3.5958Y-3.4252
X3.6024Y-2.3622
T8
X1.2657Y-1.4173
X1.8051Y-1.4173
T3
G00X1.5748Y-1.3917
M15
G01X1.4961Y-1.3917
M16
G05
T0
M30
